<svg id="365750a7-b658-413a-b6b2-faef73188445" data-name="text" xmlns="http://www.w3.org/2000/svg" viewBox="0 0 307 120.27"><defs><style>.d0a27477-bf0b-4ddd-a42f-195db3a5696d{fill:#fff;}</style></defs><title>index</title><path class="d0a27477-bf0b-4ddd-a42f-195db3a5696d" d="M78,58.27h3.57s0.07-.21.11-0.21c2.17-.24,3.27-1.69,3.56-3.9,0,0-.24-0.2-0.24-0.23V27.5c2,2.74,3.5,5.47,5.11,8.12a3.75,3.75,0,0,0,1.79,1.56,3.25,3.25,0,0,0,1.55.22,3.69,3.69,0,0,0,1.27-.1l0.19-.06a4,4,0,0,0,1.67-1.38s0.28,0,.29-0.06c1.64-2.72,3.13-5.47,5.13-8.2V54a3.75,3.75,0,0,0,3.51,4.05s-0.18.21-.15,0.21H109s0.05-.21.08-0.21a4.09,4.09,0,0,0,3.89-3.83S113,54,113,54V7.53a2.82,2.82,0,0,0-.12-0.61c-0.09-2.11-1.37-2.65-3.48-3.65h-4.11c-0.07,0-.14.25-0.21,0.26a4.56,4.56,0,0,0-3,2.23c-2.87,4.52-5.72,9.08-8.55,13.56-2.83-4.35-5.67-8.75-8.46-13.2a5.45,5.45,0,0,0-3.13-2.28,1.11,1.11,0,0,0-.28,0,17.41,17.41,0,0,1-1.72-.29s-0.06-.24-0.08-0.24H77.55C75.4,4.27,74,5.13,74,7.18v47s0.09,0.3.09,0.35c0.3,2.14,1.73,2.72,3.93,3.72"/><path class="d0a27477-bf0b-4ddd-a42f-195db3a5696d" d="M129,29.27V19.89c1-3,1.94-4.61,5-5,3,0.31,5,1.88,5,5v9.53a0.88,0.88,0,0,1-.17.84h-8.91a1,1,0,0,1-.92-0.75m-7.17,28.54s0.06,0.21.09,0.21h3.62s0.07-.21.1-0.21c2.23-.24,3.36-1.72,3.59-4,0,0-.22-0.18-0.22-0.21v-12a1.08,1.08,0,0,1,1-.61h8.79c0.33,0,.21.29,0.21,0.61v12s0.14,0.06.14,0.09A4.22,4.22,0,0,0,142.93,58a2.46,2.46,0,0,0,.2.22h3.68s0.07-.21.11-0.21a4.25,4.25,0,0,0,3.9-3.83S151,54,151,54V19.56s-0.17-.06-0.17-0.09c-0.92-9.87-6.46-15.35-16.28-16.27h-0.27C124.41,4.17,119,9.65,118,19.47V54.2a1.8,1.8,0,0,0,0,.24,4,4,0,0,0,3.79,3.61"/><path class="d0a27477-bf0b-4ddd-a42f-195db3a5696d" d="M174.21,46.5a5.85,5.85,0,0,1-4.65,0,31.23,31.23,0,0,1-5-2.59l-0.14-.08a12.44,12.44,0,0,1-1.74-.9l-0.11-.07a4.91,4.91,0,0,0-2-.5,3.74,3.74,0,0,0-3.2,1.92c-0.66,1-1.26,2-1.77,3a0.58,0.58,0,0,0-.05.11c-1.18,2.9.29,4.44,1.27,5.11l0.06,0,1.58,0.89a69.19,69.19,0,0,0,7.84,4l0.1,0a18.81,18.81,0,0,0,5.59.9,16.28,16.28,0,0,0,16-16.53V41.75a13.43,13.43,0,0,0-.19-2.75,14.46,14.46,0,0,0-8.24-9.89c-2-1.15-4-2.28-6-3.39l-0.08,0a24.21,24.21,0,0,1-5.55-3.37,5.37,5.37,0,0,1-1-4,5.56,5.56,0,0,1,2.71-3.21,12.13,12.13,0,0,1,9.2,2.62,0.89,0.89,0,0,0,.17.09,17.76,17.76,0,0,1,1.65.93l0.11,0.05a4.59,4.59,0,0,0,2,.51A3.85,3.85,0,0,0,186,17.42a0.15,0.15,0,0,1,0-.05c0.6-1,1.22-2,1.85-2.95l0-.07c1.23-2.22.77-4.21-1.3-5.57l-0.13-.07A11.7,11.7,0,0,1,185.13,8a0.89,0.89,0,0,0-.22-0.19,39.47,39.47,0,0,0-8.77-4,1,1,0,0,0-.51-0.29,15.56,15.56,0,0,0-14.29,3.27,16.72,16.72,0,0,0-6.21,13.15h0a8.08,8.08,0,0,0,.38,2.82,13.5,13.5,0,0,0,8.23,9.6c2,1.2,4,2.3,6,3.26a29,29,0,0,1,5.55,3.82c2,2.87,1.64,5.06-1.06,7.07"/><path class="d0a27477-bf0b-4ddd-a42f-195db3a5696d" d="M197,15.24l0.1,0h7.57c0.4,0,.33.17,0.33,0.47V54.2a0.78,0.78,0,0,0,.13.16,4.15,4.15,0,0,0,3.8,3.69s0.11,0.21.14,0.21h3.57c0.1,0,.19-0.2.28-0.2a3.72,3.72,0,0,0,1.42-.42,1.07,1.07,0,0,0,.64-0.48,4.19,4.19,0,0,0,1-1.08l0-.07a8.74,8.74,0,0,0,.76-1.3,2,2,0,0,0,.25-0.33V20.47c0-1.56-.17-3.14-0.12-4.71,0-.22-0.17-0.49.34-0.49h7.5l0.29,0c2.16-.23,3-1.61,4-3.81V7.54c-1-2.15-1.82-3.73-4-4,0,0-.27-0.25-0.32-0.25H197.1S197,3.51,197,3.51a4.17,4.17,0,0,0-3.84,4s-0.13.17-.13,0.2v3.61s0.13,0.06.13,0.09A4,4,0,0,0,197,15.24"/><path class="d0a27477-bf0b-4ddd-a42f-195db3a5696d" d="M238,58.27h24.07s0-.21.05-0.21a4.07,4.07,0,0,0,4-3.71,2.48,2.48,0,0,0-.08-0.29V50.44a0.86,0.86,0,0,0,.08-0.19,4.22,4.22,0,0,0-3.79-3.73h-16.8A0.42,0.42,0,0,1,245,46V37.25a0.47,0.47,0,0,1,.51-0.48H256c2.3-.11,4-1.45,4-3.75V29.2c0-2.24-1.66-3.66-3.91-3.84a1.06,1.06,0,0,0-.14-0.09H245.51c-0.32,0-.51,0-0.51-0.3V15.73a0.43,0.43,0,0,1,.53-0.47h16.54a0.63,0.63,0,0,0,.07,0,4.05,4.05,0,0,0,3.94-3.68,1.46,1.46,0,0,0-.08-0.2V7.67a1.2,1.2,0,0,0,.08-0.19,4.67,4.67,0,0,0-3.73-4,2.35,2.35,0,0,0-.14-0.22h-24.9c-0.07,0-.05.21-0.12,0.23A4,4,0,0,0,234,7.67V54.21c0,2.28,1.32,4.05,3.59,4.05"/><path class="d0a27477-bf0b-4ddd-a42f-195db3a5696d" d="M283,24.27V15.79c0-.3-0.12-0.53.35-0.53h3.51c3,0,4.63,1.95,5,5-0.38,3.05-2,5-5,5h-3.52c-0.42,0-.34-0.29-0.34-0.68M275.14,58s0.05,0.25.08,0.25h3.67c2.26-1,3.75-1.7,4-4,0,0,.13-0.31.13-0.35V37.1c0-.36,0-0.84.35-0.84h3.51c3,1,5.14,2.15,5.14,5.19V54c0,2.32,1.43,3.27,3.8,4.27h3.6c2.21-1,3.45-1.7,3.69-4,0,0-.1-0.31-0.1-0.35V40.72a14.33,14.33,0,0,0-3.26-9.83A16.57,16.57,0,0,0,304,20.21V20.09c-1-9.87-6.64-15.6-16.46-16.58,0,0-.26-0.24-0.29-0.24H275c-0.07,0-.14.24-0.21,0.26a4.36,4.36,0,0,0-3.61,3.91S271,7.63,271,7.67V53.92s0.19,0.19.19,0.22A4.11,4.11,0,0,0,275.14,58"/><path class="d0a27477-bf0b-4ddd-a42f-195db3a5696d" d="M90,117.27h0.42c9.68-.88,15.29-6.27,16.42-16,0,0,.15-0.08.15-0.12v-3a1.84,1.84,0,0,0-.16-0.19,4.37,4.37,0,0,0-4.06-3.69s-0.16,0-.21,0H99.07A3.94,3.94,0,0,0,95,98a0.41,0.41,0,0,0,0,.09V101c0,3.08-1.95,4.64-4.86,4.95C87,105.69,86,104.12,85,101V78.82c1-2.94,2-4.49,5.14-4.88C93.05,74.32,95,75.88,95,78.82v2.74a0.86,0.86,0,0,0,0,.13,4,4,0,0,0,3.89,3.69s0.08-.1.12-0.1h3.68c0.05,0,.11.1,0.16,0.09a4.48,4.48,0,0,0,4-3.74c0-.07.16-0.07,0.16-0.13V78.56s-0.15-.07-0.15-0.11c-1-9.86-6.57-15.37-16.34-16.41H90.18C80.26,63.08,75,68.61,74,78.48v22.61s0.09,0.06.09,0.09c0.78,9.88,6.28,15.09,16.17,16.09"/><path class="d0a27477-bf0b-4ddd-a42f-195db3a5696d" d="M144.16,113.58c0-.05-0.16-0.1-0.16-0.16V109.3c0-.05.17-0.11,0.16-0.16a4.13,4.13,0,0,0-3.79-3.82s0-.06,0-0.06H123.79c-0.36,0-.79-0.05-0.79-0.41V66.6s0.13-.26.13-0.28c-0.17-2.25-1.4-3-3.69-4h-3.72a2.27,2.27,0,0,1-.11.21,4,4,0,0,0-3.67,3.68s0.05,0.19.05,0.24v47s-0.06.06-.06,0.08a3.79,3.79,0,0,0,3.47,3.76h25s0,0,0,0a3.94,3.94,0,0,0,3.75-3.69"/><path class="d0a27477-bf0b-4ddd-a42f-195db3a5696d" d="M171,79.27v9.08a1.14,1.14,0,0,1-.74.92h-8.91c-0.33,0-.36-0.38-0.36-0.83V78.81c0-3,1.94-4.6,5-4.95,3,0.3,4,1.88,5,5m11,34.74a0.93,0.93,0,0,0,0-.14v-35c-1-9.86-6.33-15.34-16.15-16.27h-0.16c-9.87,1-15.06,6.46-15.94,16.28,0,0,.26.06,0.26,0.09v35.14s-0.24.1-.24,0.14a3.72,3.72,0,0,0,3.65,3.49h3.68a4,4,0,0,0,3.86-3.88s0.06-.07.06-0.1V100.8c0-.29,0-0.54.44-0.54h8.79a0.73,0.73,0,0,1,.77.54v12.48s-0.14.05-.14,0.08a3.9,3.9,0,0,0,3.65,3.9h3.83a4,4,0,0,0,3.71-3.71"/><path class="d0a27477-bf0b-4ddd-a42f-195db3a5696d" d="M212.94,114.22A15.82,15.82,0,0,0,220,100.75v-0.07a16.11,16.11,0,0,0-.47-2.75A14.68,14.68,0,0,0,211.14,88c-2-1.15-4.08-2.28-6.06-3.39l-0.11,0a24.25,24.25,0,0,1-5.56-3.37,5.34,5.34,0,0,1-1-4A5.54,5.54,0,0,1,201.07,74a12.15,12.15,0,0,1,9.2,2.61,0.66,0.66,0,0,0,.16.1c0.61,0.3,1.16.62,1.64,0.92l0.1,0.06a4.66,4.66,0,0,0,2,.51,3.82,3.82,0,0,0,3.21-1.89l0-.05c0.59-1,1.21-2,1.85-2.95a0.39,0.39,0,0,0,0-.07c1.24-2.22.77-4.2-1.3-5.56l-0.13-.07a12,12,0,0,1-1.33-.73,1,1,0,0,0-.23-0.19,39.35,39.35,0,0,0-8.76-4,1,1,0,0,0-.51-0.29A15.19,15.19,0,0,0,193,65.69a16.41,16.41,0,0,0-6,13.15h0a9,9,0,0,0,.17,2.83,13.38,13.38,0,0,0,8.12,9.6c2,1.2,3.95,2.29,5.92,3.26a29,29,0,0,1,5.53,3.82c2,2.87,1.62,5.06-1.08,7.07a5.87,5.87,0,0,1-4.65,0,31.57,31.57,0,0,1-5-2.59l-0.15-.07a13.46,13.46,0,0,1-1.74-.9l-0.11-.06a4.79,4.79,0,0,0-2-.51,3.75,3.75,0,0,0-3.2,1.92c-0.65,1-1.25,2-1.77,3l0,0.11c-1.17,2.89.29,4.44,1.27,5.11l0.05,0c0.55,0.32,1.07.62,1.58,0.9a71.55,71.55,0,0,0,7.84,4l0.1,0a19,19,0,0,0,5.67.91,16.25,16.25,0,0,0,9.42-3.06"/><path class="d0a27477-bf0b-4ddd-a42f-195db3a5696d" d="M250.15,114.22A15.62,15.62,0,0,0,257,100.75v-0.07a13.71,13.71,0,0,0-.26-2.75A14.53,14.53,0,0,0,248.46,88c-2-1.15-4-2.28-6-3.39l-0.08,0a24.29,24.29,0,0,1-5.55-3.37,5.31,5.31,0,0,1-1-4,5.5,5.5,0,0,1,2.71-3.2,12.16,12.16,0,0,1,9.2,2.61,0.82,0.82,0,0,0,.16.1,18.77,18.77,0,0,1,1.66.92l0.09,0.06a4.66,4.66,0,0,0,2,.51,3.82,3.82,0,0,0,3.21-1.89l0-.05c0.6-1,1.22-2,1.85-2.95l0-.07c1.23-2.22.77-4.2-1.3-5.56l-0.13-.07a12,12,0,0,1-1.33-.73,1.13,1.13,0,0,0-.23-0.19,39.62,39.62,0,0,0-8.77-4,1,1,0,0,0-.51-0.29,15.57,15.57,0,0,0-14.29,3.27A16.57,16.57,0,0,0,224,78.84h0a9.41,9.41,0,0,0,.38,2.83,13.51,13.51,0,0,0,8.23,9.6c2,1.2,4,2.29,6,3.26a29.28,29.28,0,0,1,5.56,3.82c2,2.87,1.63,5.06-1.06,7.07a5.87,5.87,0,0,1-4.65,0,31.82,31.82,0,0,1-5-2.59,0.58,0.58,0,0,0-.14-0.07,13.48,13.48,0,0,1-1.74-.9l-0.12-.06a4.74,4.74,0,0,0-2-.51,3.76,3.76,0,0,0-3.2,1.92c-0.66,1-1.25,2-1.77,3a0.63,0.63,0,0,0-.05.11c-1.17,2.89.3,4.44,1.27,5.11l0.06,0c0.55,0.32,1.08.62,1.58,0.9a71.35,71.35,0,0,0,7.84,4l0.1,0a18.28,18.28,0,0,0,5.56.91,15.94,15.94,0,0,0,9.32-3.06"/><path class="d0a27477-bf0b-4ddd-a42f-195db3a5696d" d="M60.38,3.27H9.49C5.05,3.27,3,7.36,3,11.7V109c0,4.35,2.05,8.24,6.49,8.24H60.38c4.44,0,8.62-3.89,8.62-8.24V11.7C69,7.36,64.82,3.27,60.38,3.27Zm-3.8,84.2a5.15,5.15,0,0,1-5.14-5.15,5.21,5.21,0,0,1,.62-2.45l-7.82-7.93a12.93,12.93,0,0,1-8,2.75,13.2,13.2,0,0,1-3.73-.54L26.2,88.87a8.29,8.29,0,1,1-4.61-1.4,8.4,8.4,0,0,1,1.84.21l6.35-14.74a13,13,0,0,1-6.5-11.24,12.8,12.8,0,0,1,.47-3.43l-5.49-2.22a4.3,4.3,0,0,1-7.52-2.86c0-2.37,2.75-4.3,5.13-4.3S21,50.82,21,53.19v0l4.7,2.23a12,12,0,0,1,3.93-4.67L21.32,34.39a10.49,10.49,0,0,1-3.06.45,9.88,9.88,0,1,1,5.56-1.79l8.11,16.43a12.86,12.86,0,0,1,9.51.31l6.33-10.95a6.71,6.71,0,1,1,4.57,1.81,6.59,6.59,0,0,1-2-.3L44,51.31a12.92,12.92,0,0,1,5,8L55.62,59a3.24,3.24,0,1,1,0,3l-6.43.23a12.89,12.89,0,0,1-2.84,7.55l7.81,7.93A5.15,5.15,0,1,1,56.59,87.47Z"/></svg>